# xmcd
#
# Track frame offsets:
#	150
#	17847
#	36535
#	56455
#	75887
#	94387
#	110817
#	127795
#	147312
#	166452
#	181555
#	203032
#	223425
#	243322
#
# Disc length: 3302 seconds
#
# Revision: 12
# Processed by: cddbd v1.5.2PL0 Copyright (c) Steve Scherf et al.
# Submitted via: EasyCDDAExtractor 15.3.0.1
#
DISCID=c20ce40e
DTITLE=Fey - El Color De Los Sueños
DYEAR=1998
DGENRE=Latin
TTITLE0=Cielo Liquido
TTITLE1=La Madrugada, Tu Y La Radio
TTITLE2=Ni Tu Ni Nadie
TTITLE3=La Espuma De Los Dias
TTITLE4=Diselo Con Flores
TTITLE5=Canela
TTITLE6=Vuelve
TTITLE7=El
TTITLE8=Almibar
TTITLE9=No Tengo Novio
TTITLE10=El Color De Los Sueños
TTITLE11=De Corazon A Corazon
TTITLE12=Flor De Un Dia
TTITLE13=Iye
EXTD=
EXTT0=
EXTT1=
EXTT2=
EXTT3=
EXTT4=
EXTT5=
EXTT6=
EXTT7=
EXTT8=
EXTT9=
EXTT10=
EXTT11=
EXTT12=
EXTT13=
PLAYORDER=
